<svg xmlns="http://www.w3.org/2000/svg" width="50" height="43.752" viewBox="0 0 50 43.752"><path id="Icon_awesome-react" data-name="Icon awesome-react" d="M40.84,16.429q-.791-.264-1.582-.5c.088-.361.166-.723.244-1.084,1.2-5.82.41-10.5-2.256-12.041-2.568-1.475-6.758.059-11,3.75-.42.361-.83.742-1.221,1.123-.264-.254-.537-.508-.811-.752-4.443-3.945-8.9-5.605-11.562-4.053-2.559,1.484-3.32,5.889-2.246,11.4.107.547.225,1.084.361,1.631-.625.176-1.24.371-1.816.576C3.74,18.285,0,21.136,0,24.086c0,3.047,3.984,6.1,9.4,7.959.439.146.879.293,1.328.42-.146.586-.273,1.162-.391,1.758-1.025,5.42-.225,9.717,2.334,11.191,2.637,1.523,7.07-.039,11.387-3.818.342-.3.684-.615,1.025-.947.43.42.879.82,1.328,1.211,4.18,3.594,8.311,5.049,10.859,3.574,2.637-1.523,3.5-6.143,2.383-11.768q-.132-.645-.293-1.318c.313-.088.615-.186.918-.283C45.918,30.2,50,27.181,50,24.086c0-2.959-3.848-5.83-9.16-7.656ZM27.627,8.138c3.633-3.164,7.021-4.4,8.564-3.516,1.65.947,2.285,4.775,1.25,9.8-.068.332-.137.654-.225.977a49.993,49.993,0,0,0-6.572-1.035,49.34,49.34,0,0,0-4.16-5.186c.381-.361.752-.7,1.143-1.045Zm-11.3,21.016c.5.85,1.006,1.7,1.543,2.529a44.22,44.22,0,0,1-4.531-.732,45.619,45.619,0,0,1,1.592-4.346c.449.859.908,1.709,1.4,2.549ZM13.369,17.406c1.406-.312,2.9-.566,4.453-.762-.518.811-1.025,1.641-1.5,2.48s-.947,1.68-1.387,2.539c-.615-1.455-1.133-2.881-1.562-4.258Zm2.676,6.729c.645-1.348,1.348-2.666,2.09-3.965s1.543-2.559,2.383-3.8c1.465-.107,2.959-.166,4.482-.166s3.027.059,4.482.166q1.245,1.846,2.373,3.779T33.975,24.1q-.981,2.021-2.109,3.984c-.742,1.3-1.533,2.559-2.363,3.809-1.455.107-2.969.156-4.5.156s-3.018-.049-4.453-.137q-1.274-1.86-2.4-3.809c-.752-1.3-1.445-2.617-2.1-3.965Zm17.637,5c.5-.859.967-1.729,1.426-2.607a45.333,45.333,0,0,1,1.65,4.326,42.9,42.9,0,0,1-4.59.781C32.7,30.814,33.193,29.974,33.682,29.134Zm1.406-7.471c-.459-.859-.928-1.719-1.416-2.559s-.977-1.65-1.494-2.461a44.94,44.94,0,0,1,4.482.781,43.219,43.219,0,0,1-1.572,4.238ZM25.02,10.677a42.883,42.883,0,0,1,2.891,3.5c-1.934-.088-3.877-.088-5.811,0C23.057,12.914,24.043,11.742,25.02,10.677ZM13.691,4.691c1.641-.957,5.283.41,9.121,3.809.244.215.488.449.742.684a49.614,49.614,0,0,0-4.189,5.186A51.477,51.477,0,0,0,12.8,15.384c-.127-.5-.234-1.006-.342-1.514-.918-4.727-.312-8.291,1.23-9.18ZM11.3,30.433c-.41-.117-.811-.244-1.211-.381a19.917,19.917,0,0,1-6.152-3.047A4.382,4.382,0,0,1,2.1,24.086c0-1.787,3.086-4.072,7.539-5.625.557-.2,1.123-.371,1.689-.537a51.928,51.928,0,0,0,2.393,6.211,53.381,53.381,0,0,0-2.422,6.3ZM22.686,40a17.874,17.874,0,0,1-5.508,3.447,4.322,4.322,0,0,1-3.447.127c-1.553-.9-2.2-4.346-1.318-8.984.107-.547.225-1.094.361-1.631a48.854,48.854,0,0,0,6.631.957,51.536,51.536,0,0,0,4.219,5.215C23.311,39.437,23,39.73,22.686,40Zm2.393-2.373c-1-1.074-1.992-2.266-2.959-3.545.937.039,1.9.059,2.881.059,1.006,0,1.992-.02,2.969-.068a42.114,42.114,0,0,1-2.891,3.555Zm12.764,2.93a4.34,4.34,0,0,1-1.611,3.057c-1.553.9-4.863-.273-8.437-3.34-.41-.352-.82-.732-1.24-1.123a48.309,48.309,0,0,0,4.121-5.234,48.142,48.142,0,0,0,6.66-1.025c.1.4.186.8.264,1.191a17.8,17.8,0,0,1,.244,6.475Zm1.777-10.5c-.273.088-.547.176-.83.254a49.609,49.609,0,0,0-2.49-6.23,49.361,49.361,0,0,0,2.393-6.143c.508.146,1,.3,1.465.459,4.551,1.563,7.744,3.887,7.744,5.664,0,1.914-3.408,4.385-8.281,6ZM25,28.6a4.473,4.473,0,1,0-4.473-4.473A4.472,4.472,0,0,0,25,28.6Z" transform="translate(0 -2.251)"/></svg>
